<?xml version="1.0" encoding="utf-8"?>
<!-- Generator: Adobe Illustrator 16.0.4, SVG Export Plug-In . SVG Version: 6.00 Build 0)  -->
<!DOCTYPE svg PUBLIC "-//W3C//DTD SVG 1.1//EN" "http://www.w3.org/Graphics/SVG/1.1/DTD/svg11.dtd">
<svg version="1.1" id="Ebene_1" xmlns="http://www.w3.org/2000/svg" xmlns:xlink="http://www.w3.org/1999/xlink" x="0px" y="0px"
	 width="1111.051px" height="197.227px" viewBox="0 0 1111.051 197.227" enable-background="new 0 0 1111.051 197.227"
	 xml:space="preserve">
<g>
	<polygon points="10.666,11.544 10.666,182.447 55.095,182.447 55.095,115.356 103.824,115.356 103.824,77.731 55.095,77.731 
		55.095,49.167 108.811,49.167 108.811,11.544 	"/>
	<polygon points="201.52,182.447 157.094,182.447 157.094,49.167 120.374,49.167 120.374,11.544 238.239,11.544 238.239,49.167 
		201.52,49.167 	"/>
	<path d="M368.266,68.89c-9.065-12.241-23.799-18.812-38.982-18.812c-27.203,0-45.561,20.852-45.561,47.374
		c0,26.97,18.584,46.461,46.236,46.461c14.508,0,29.014-7.026,38.307-18.129v53.263c-14.734,4.533-25.389,7.931-39.211,7.931
		c-23.801,0-46.466-9.062-64.145-25.155c-18.814-17.002-27.427-39.214-27.427-64.6c0-23.346,8.84-45.786,25.158-62.559
		c16.776-17.227,41.029-27.652,65.053-27.652c14.282,0,27.423,3.173,40.571,8.613V68.89L368.266,68.89z"/>
	<path d="M496.512,10.415h63.01c47.604,0,86.812,37.397,86.812,85.449c0,48.053-39.439,85.449-86.812,85.449h-63.01V10.415
		L496.512,10.415z M540.934,143.69h9.975c26.519,0,49.187-14.507,49.187-47.825c0-30.598-20.177-47.822-48.732-47.822h-10.428
		L540.934,143.69L540.934,143.69z"/>
	<path fill="#009EDF" d="M459.004,42.546c9.977,0,17.457,6.804,17.457,17.229c0,11.785-8.164,18.812-19.494,18.812h-4.531v29.692
		c2.49-0.684,4.984-1.36,7.703-1.36c8.707,0,16.733,4.869,20.793,12.201V8.499c-5.572-1.459-11.566-2.22-17.844-2.22
		c-17.451,0-32.644,4.988-43.521,14.737c-10.881,9.745-18.135,23.344-19.948,41.249h41.251
		C440.645,51.159,447.67,42.546,459.004,42.546"/>
	<path fill="#009EDF" d="M480.932,135.904c-3.926,7.172-11.668,11.456-21.016,11.456c-14.056,0-23.804-10.651-23.804-24.252h-45.334
		c-0.452,14.964,9.293,32.641,19.492,43.066c13.83,14.055,31.508,19.266,51.002,19.266c6.693,0,13.322-0.755,19.658-2.244
		L480.932,135.904L480.932,135.904z"/>
	<polygon fill="#231F20" points="8.09,11.188 8.09,184.685 53.188,184.685 53.188,116.572 102.661,116.572 102.661,78.378 
		53.188,78.378 53.188,49.382 107.724,49.382 107.724,11.188 	"/>
	<polygon fill="#231F20" points="201.831,184.685 156.737,184.685 156.737,49.388 119.46,49.388 119.46,11.188 239.115,11.188 
		239.115,49.388 201.831,49.388 	"/>
	<text transform="matrix(1 0 0 1 948.2161 58.884)" fill="#231F20" font-family="'FuturaStd-Bold'" font-size="52.0219"> </text>
	<g>
		<path fill="#231F20" d="M725.198,28.298v6.554h11.184v8.635h-11.184v15.397h-10.195V19.663h22.523v8.635H725.198z"/>
		<path fill="#231F20" d="M777.218,19.663v22.056c0,5.045-0.208,10.039-4.109,13.836c-3.277,3.225-8.427,4.37-13.005,4.37
			c-4.577,0-9.727-1.145-13.004-4.37c-3.901-3.797-4.109-8.791-4.109-13.836V19.663h10.195v20.651
			c0,5.098,0.364,10.664,6.918,10.664c6.555,0,6.919-5.566,6.919-10.664V19.663H777.218z"/>
		<path fill="#231F20" d="M799.277,58.884h-10.195V28.298h-8.427v-8.635h27.049v8.635h-8.427V58.884z"/>
		<path fill="#231F20" d="M845.418,19.663v22.056c0,5.045-0.208,10.039-4.109,13.836c-3.277,3.225-8.427,4.37-13.005,4.37
			c-4.577,0-9.727-1.145-13.004-4.37c-3.901-3.797-4.109-8.791-4.109-13.836V19.663h10.195v20.651
			c0,5.098,0.364,10.664,6.918,10.664c6.555,0,6.919-5.566,6.919-10.664V19.663H845.418z"/>
		<path fill="#231F20" d="M884.488,58.884h-12.692l-9.623-15.085h-0.104v15.085h-10.195V19.663h15.241
			c7.75,0,13.628,3.693,13.628,12.068c0,5.41-3.017,10.091-8.582,11.08L884.488,58.884z M862.068,37.245h0.988
			c3.329,0,7.074-0.624,7.074-4.89c0-4.265-3.745-4.89-7.074-4.89h-0.988V37.245z"/>
		<path fill="#231F20" d="M897.443,28.298v6.554h11.496v8.635h-11.496v6.762h12.12v8.635h-22.315V19.663h22.315v8.635H897.443z"/>
		<path fill="#231F20" d="M927.564,53.838c0,3.329-2.705,6.086-6.086,6.086c-3.382,0-6.086-2.757-6.086-6.086
			c0-3.381,2.704-6.086,6.086-6.086C924.859,47.752,927.564,50.457,927.564,53.838z"/>
	</g>
	<g>
		<path fill="#231F20" d="M730.608,121.317h-10.195V90.731h-8.427v-8.635h27.049v8.635h-8.427V121.317z"/>
		<path fill="#231F20" d="M752.925,90.731v6.554h11.496v8.635h-11.496v6.762h12.12v8.635H742.73V82.095h22.315v8.635H752.925z"/>
		<path fill="#231F20" d="M799.378,95.256c-2.08-2.809-5.462-4.317-8.947-4.317c-6.241,0-10.455,4.786-10.455,10.872
			c0,6.19,4.266,10.664,10.611,10.664c3.329,0,6.658-1.613,8.791-4.162v12.224c-3.381,1.041-5.826,1.82-8.999,1.82
			c-5.462,0-10.663-2.081-14.721-5.773c-4.317-3.901-6.294-8.999-6.294-14.825c0-5.357,2.028-10.507,5.773-14.356
			c3.85-3.954,9.415-6.346,14.93-6.346c3.276,0,6.294,0.728,9.311,1.977V95.256z"/>
		<path fill="#231F20" d="M830.592,97.233V82.095h10.195v39.221h-10.195v-16.073h-14.721v16.073h-10.195V82.095h10.195v15.137
			H830.592z"/>
		<path fill="#231F20" d="M847.449,82.095h10.195l18.674,23.98h0.104v-23.98h10.195v39.221h-10.195l-18.674-24.032h-0.104v24.032
			h-10.195V82.095z"/>
		<path fill="#231F20" d="M934.687,100.978c0,12.692-9.103,21.64-21.69,21.64c-12.589,0-21.691-8.947-21.691-21.64
			c0-11.86,10.403-20.183,21.691-20.183C924.283,80.795,934.687,89.118,934.687,100.978z M901.916,101.03
			c0,6.762,4.994,11.704,11.08,11.704s11.079-4.941,11.079-11.704c0-5.41-4.993-10.352-11.079-10.352S901.916,95.62,901.916,101.03z
			"/>
		<path fill="#231F20" d="M949.62,112.682h12.224v8.635h-22.419V82.095h10.195V112.682z"/>
		<path fill="#231F20" d="M1006.581,100.978c0,12.692-9.103,21.64-21.69,21.64c-12.589,0-21.691-8.947-21.691-21.64
			c0-11.86,10.403-20.183,21.691-20.183C996.178,80.795,1006.581,89.118,1006.581,100.978z M973.811,101.03
			c0,6.762,4.994,11.704,11.08,11.704s11.079-4.941,11.079-11.704c0-5.41-4.993-10.352-11.079-10.352S973.811,95.62,973.811,101.03z
			"/>
		<path fill="#231F20" d="M1050.437,99.417c-0.104,5.722-0.521,10.612-4.006,15.501c-3.849,5.357-9.623,7.699-16.177,7.699
			c-12.328,0-20.911-8.375-20.911-20.703c0-12.744,8.635-21.119,21.275-21.119c8.062,0,14.305,3.641,17.686,10.976l-9.676,4.058
			c-1.404-3.746-4.369-6.242-8.479-6.242c-6.71,0-10.195,6.398-10.195,12.38c0,6.086,3.642,12.276,10.352,12.276
			c4.422,0,7.803-2.289,8.219-6.814h-8.323v-8.011H1050.437z"/>
		<path fill="#231F20" d="M1050.805,82.095h12.224l7.335,10.664l7.334-10.664h12.225l-14.461,20.391v18.83h-10.195v-18.83
			L1050.805,82.095z"/>
		<path fill="#231F20" d="M1097.78,116.271c0,3.329-2.705,6.086-6.086,6.086c-3.382,0-6.086-2.757-6.086-6.086
			c0-3.381,2.704-6.086,6.086-6.086C1095.074,110.185,1097.78,112.89,1097.78,116.271z"/>
	</g>
	<g>
		<path fill="#231F20" d="M743.039,157.679c-2.08-2.809-5.462-4.317-8.947-4.317c-6.241,0-10.455,4.785-10.455,10.871
			c0,6.19,4.266,10.664,10.611,10.664c3.329,0,6.658-1.612,8.791-4.161v12.224c-3.381,1.04-5.826,1.82-8.999,1.82
			c-5.462,0-10.663-2.08-14.721-5.773c-4.317-3.901-6.294-8.999-6.294-14.825c0-5.357,2.028-10.508,5.773-14.356
			c3.85-3.953,9.415-6.347,14.93-6.347c3.276,0,6.294,0.729,9.311,1.977V157.679z"/>
		<path fill="#231F20" d="M790.741,163.401c0,12.692-9.103,21.64-21.69,21.64c-12.589,0-21.691-8.947-21.691-21.64
			c0-11.859,10.403-20.183,21.691-20.183C780.338,143.218,790.741,151.541,790.741,163.401z M757.971,163.452
			c0,6.763,4.994,11.704,11.08,11.704s11.079-4.941,11.079-11.704c0-5.409-4.993-10.351-11.079-10.351
			S757.971,158.043,757.971,163.452z"/>
		<path fill="#231F20" d="M795.48,144.519h10.195l18.674,23.979h0.104v-23.979h10.195v39.221h-10.195l-18.674-24.032h-0.104v24.032
			H795.48V144.519z"/>
		<path fill="#231F20" d="M862.847,154.61c-1.873-1.561-4.266-2.601-6.763-2.601c-1.872,0-4.369,1.093-4.369,3.277
			c0,2.288,2.757,3.173,4.525,3.745l2.602,0.78c5.461,1.612,9.675,4.369,9.675,10.716c0,3.9-0.937,7.906-4.058,10.559
			c-3.068,2.602-7.178,3.693-11.132,3.693c-4.941,0-9.779-1.664-13.784-4.474l4.369-8.219c2.549,2.237,5.566,4.058,9.051,4.058
			c2.394,0,4.942-1.196,4.942-3.953c0-2.861-4.006-3.85-6.19-4.474c-6.398-1.82-10.611-3.485-10.611-11.079
			c0-7.959,5.67-13.161,13.524-13.161c3.953,0,8.791,1.249,12.276,3.226L862.847,154.61z"/>
		<path fill="#231F20" d="M907.377,144.519v22.055c0,5.046-0.208,10.04-4.109,13.837c-3.277,3.225-8.427,4.369-13.005,4.369
			c-4.577,0-9.727-1.145-13.004-4.369c-3.901-3.797-4.109-8.791-4.109-13.837v-22.055h10.195v20.65
			c0,5.098,0.364,10.664,6.918,10.664c6.555,0,6.919-5.566,6.919-10.664v-20.65H907.377z"/>
		<path fill="#231F20" d="M924.027,175.105h12.224v8.635h-22.419v-39.221h10.195V175.105z"/>
		<path fill="#231F20" d="M952.326,183.74h-10.195v-30.586h-8.427v-8.635h27.049v8.635h-8.427V183.74z"/>
		<path fill="#231F20" d="M974.644,183.74h-10.195v-39.221h10.195V183.74z"/>
		<path fill="#231F20" d="M981.303,144.519h10.195l18.674,23.979h0.104v-23.979h10.195v39.221h-10.195l-18.674-24.032h-0.104v24.032
			h-10.195V144.519z"/>
		<path fill="#231F20" d="M1066.252,161.84c-0.104,5.722-0.521,10.611-4.006,15.501c-3.849,5.358-9.623,7.699-16.177,7.699
			c-12.328,0-20.911-8.375-20.911-20.703c0-12.744,8.635-21.119,21.275-21.119c8.062,0,14.305,3.642,17.686,10.976l-9.676,4.058
			c-1.404-3.745-4.369-6.242-8.479-6.242c-6.71,0-10.195,6.398-10.195,12.38c0,6.086,3.642,12.276,10.352,12.276
			c4.422,0,7.803-2.289,8.219-6.814h-8.323v-8.011H1066.252z"/>
		<path fill="#231F20" d="M1082.642,178.694c0,3.329-2.705,6.086-6.086,6.086c-3.382,0-6.086-2.757-6.086-6.086
			c0-3.381,2.704-6.086,6.086-6.086C1079.937,172.608,1082.642,175.313,1082.642,178.694z"/>
	</g>
</g>
</svg>
